<svg width="48" height="48" viewBox="0 0 48 48" fill="none" xmlns="http://www.w3.org/2000/svg">
<circle cx="24" cy="24" r="24" fill="#FEFEFE"/>
<path d="M14.2333 21.6334L17.7667 23.1334C18.1667 22.3334 18.5944 21.5445 19.05 20.7668C19.5056 19.989 19.9889 19.2445 20.5 18.5334L17.8667 18.0001L14.2333 21.6334ZM19.3667 24.3334L23.8 28.7668C25.0667 28.189 26.2556 27.5334 27.3667 26.8001C28.4778 26.0668 29.3778 25.3556 30.0667 24.6668C31.8667 22.8668 33.1889 21.0223 34.0333 19.1334C34.8778 17.2445 35.3333 15.1112 35.4 12.7334C33.0222 12.8001 30.8889 13.2556 29 14.1001C27.1111 14.9445 25.2667 16.2668 23.4667 18.0668C22.7778 18.7557 22.0667 19.6557 21.3333 20.7668C20.6 21.8779 19.9444 23.0668 19.3667 24.3334ZM27 21.1334C26.5556 20.689 26.3333 20.139 26.3333 19.4834C26.3333 18.8279 26.5556 18.2779 27 17.8334C27.4444 17.389 27.9944 17.1668 28.65 17.1668C29.3056 17.1668 29.8556 17.389 30.3 17.8334C30.7444 18.2779 30.9667 18.8279 30.9667 19.4834C30.9667 20.139 30.7444 20.689 30.3 21.1334C29.8556 21.5779 29.3056 21.8001 28.65 21.8001C27.9944 21.8001 27.4444 21.5779 27 21.1334ZM26.5 33.9001L30.1333 30.2668L29.6 27.6334C28.8889 28.1445 28.1444 28.6279 27.3667 29.0834C26.5889 29.539 25.8 29.9668 25 30.3668L26.5 33.9001ZM37.3667 10.7668C37.5667 13.789 37.1889 16.5445 36.2333 19.0334C35.2778 21.5223 33.7 23.8668 31.5 26.0668L31.4333 26.1334L31.3667 26.2001L32.1 29.8668C32.1667 30.2001 32.15 30.5223 32.05 30.8334C31.95 31.1445 31.7778 31.4223 31.5333 31.6668L25.8333 37.4001L23 30.8001L17.3333 25.1334L10.7333 22.3001L16.4667 16.6001C16.7111 16.3556 16.9889 16.1834 17.3 16.0834C17.6111 15.9834 17.9333 15.9668 18.2667 16.0334L21.9333 16.7668C21.9556 16.7445 21.9778 16.7279 22 16.7168C22.0222 16.7056 22.0444 16.689 22.0667 16.6668C24.2667 14.4668 26.6111 12.8834 29.1 11.9168C31.5889 10.9501 34.3444 10.5668 37.3667 10.7668ZM12.9667 29.1668C13.7444 28.389 14.6944 27.9945 15.8167 27.9834C16.9389 27.9723 17.8889 28.3556 18.6667 29.1334C19.4444 29.9112 19.8278 30.8612 19.8167 31.9834C19.8056 33.1056 19.4111 34.0557 18.6333 34.8334C18.0556 35.4112 17.1611 35.889 15.95 36.2668C14.7389 36.6445 12.9222 37.0001 10.5 37.3334C10.8333 34.9112 11.1833 33.089 11.55 31.8668C11.9167 30.6445 12.3889 29.7445 12.9667 29.1668ZM14.3667 30.6001C14.0556 30.9334 13.7778 31.4557 13.5333 32.1668C13.2889 32.8779 13.0778 33.789 12.9 34.9001C14.0111 34.7223 14.9222 34.5112 15.6333 34.2668C16.3444 34.0223 16.8667 33.7445 17.2 33.4334C17.6222 33.0557 17.8389 32.5834 17.85 32.0168C17.8611 31.4501 17.6667 30.9557 17.2667 30.5334C16.8444 30.1334 16.35 29.939 15.7833 29.9501C15.2167 29.9612 14.7444 30.1779 14.3667 30.6001Z" fill="#7EB101"/>
</svg>
